<svg width="250" height="222" viewBox="0 0 250 222" fill="none" xmlns="http://www.w3.org/2000/svg">
<path fill-rule="evenodd" clip-rule="evenodd" d="M0 40.8163C0 18.2741 18.2741 0 40.8163 0H209.184C231.726 0 250 18.2741 250 40.8163V180.935C250 203.477 231.726 221.751 209.184 221.751H40.8163C18.2741 221.751 0 203.477 0 180.935V40.8163ZM66.3842 36.4926C66.3842 28.0392 59.5314 21.1864 51.0781 21.1864H47.792C39.3386 21.1864 32.4859 28.0392 32.4859 36.4926V39.7786C32.4859 48.232 39.3387 55.0847 47.792 55.0847H51.0781C59.5314 55.0847 66.3842 48.232 66.3842 39.7786V36.4926ZM100.513 21.1864C108.966 21.1864 115.819 28.0392 115.819 36.4926V39.7786C115.819 48.232 108.966 55.0847 100.513 55.0847H97.227C88.7737 55.0847 81.9209 48.232 81.9209 39.7786V36.4926C81.9209 28.0392 88.7737 21.1864 97.227 21.1864H100.513ZM165.254 36.4926C165.254 28.0392 158.401 21.1864 149.948 21.1864H146.662C138.209 21.1864 131.356 28.0392 131.356 36.4926V39.7786C131.356 48.232 138.209 55.0847 146.662 55.0847H149.948C158.401 55.0847 165.254 48.232 165.254 39.7786V36.4926ZM202.208 21.1864C210.661 21.1864 217.514 28.0392 217.514 36.4926V39.7786C217.514 48.232 210.661 55.0847 202.208 55.0847H198.922C190.469 55.0847 183.616 48.232 183.616 39.7786V36.4926C183.616 28.0392 190.469 21.1864 198.922 21.1864H202.208ZM66.3842 184.798C66.3842 176.344 59.5314 169.492 51.0781 169.492H47.792C39.3386 169.492 32.4859 176.344 32.4859 184.798V188.084C32.4859 196.537 39.3387 203.39 47.792 203.39H51.0781C59.5314 203.39 66.3842 196.537 66.3842 188.084V184.798ZM100.513 169.492C108.966 169.492 115.819 176.344 115.819 184.798V188.084C115.819 196.537 108.966 203.39 100.513 203.39H97.227C88.7737 203.39 81.9209 196.537 81.9209 188.084V184.798C81.9209 176.344 88.7737 169.492 97.227 169.492H100.513ZM165.254 184.798C165.254 176.344 158.401 169.492 149.948 169.492H146.662C138.209 169.492 131.356 176.344 131.356 184.798V188.084C131.356 196.537 138.209 203.39 146.662 203.39H149.948C158.401 203.39 165.254 196.537 165.254 188.084V184.798ZM202.208 169.492C210.661 169.492 217.514 176.344 217.514 184.798V188.084C217.514 196.537 210.661 203.39 202.208 203.39H198.922C190.469 203.39 183.616 196.537 183.616 188.084V184.798C183.616 176.344 190.469 169.492 198.922 169.492H202.208Z" fill="#49A28C"/>
<path d="M32.4856 129.713C32.4856 121.259 39.3384 114.407 47.7917 114.407H200.795C209.249 114.407 216.101 121.259 216.101 129.713V135.824C216.101 144.277 209.249 151.13 200.795 151.13H47.7917C39.3384 151.13 32.4856 144.277 32.4856 135.824V129.713Z" fill="#388D79"/>
<path d="M99.2733 73.1724L36.7229 118.37H211.864L171.988 82.3532L140.713 110.602L99.2733 73.1724Z" fill="#388D79"/>
</svg>
